<?xml version="1.0" encoding="UTF-8"?>
<svg width="200px" height="200px" viewBox="0 0 200 200" version="1.1" xmlns="http://www.w3.org/2000/svg" xmlns:xlink="http://www.w3.org/1999/xlink">
    <!-- Generator: Sketch 60.1 (88133) - https://sketch.com -->
    <title>Logo</title>
    <desc>Created with Sketch.</desc>
    <g id="600x600-Light" stroke="none" stroke-width="1" fill="none" fill-rule="evenodd">
        <g id="IconMainScaledDown5%-Copy-2" transform="translate(29.032258, 0.000000)" fill="#000000">
            <g id="N-Copy-4" transform="translate(23.297047, 0.000000)">
                <polygon id="Path" points="36.7169244 41.7477312 36.7169244 51.531347 20.6788626 36.4583558 20.6788626 28.0921543 36.7169244 13.0191631 36.7169244 22.8719211 25.5412968 32.2061129"></polygon>
                <path d="M41.1212138,9.86670696 C40.6874113,7.20964944 40.4705133,5.37889946 40.4705133,4.3744021 C40.4705133,3.0134702 40.7442179,1.9441826 41.2916354,1.16650723 C41.8390528,0.388831854 42.6291813,0 43.6620444,0 C44.8601657,0 45.6657868,0.550845126 46.0789321,1.6525519 C46.4920773,2.75425868 46.9258733,4.79562592 47.3803331,7.77671484 L56.0253544,63.8176662 C56.4384996,66.7987551 56.6450692,68.6619078 56.6450692,69.40718 C56.6450692,72.2586564 55.5915646,73.6843732 53.4845238,73.6843732 C52.637576,73.6843732 51.9920462,73.3846486 51.5479151,72.7851905 C51.1037839,72.1857324 50.7732727,71.351364 50.5563714,70.2820604 C50.3394701,69.2127568 50.0864225,67.7546373 49.7972208,65.9076583 L41.1212138,9.86670696 Z" id="Path" transform="translate(48.557791, 36.842187) scale(-1, 1) translate(-48.557791, -36.842187) "></path>
                <polygon id="Path" points="76.4367198 36.5106881 60.3986581 51.5995102 60.3986581 41.8503397 71.6061704 32.3423148 60.3986581 22.9720874 60.3986581 13.2918157 76.4367198 28.2428403"></polygon>
                <polygon id="Path-Copy-2" points="16.0380618 41.7477312 16.0380618 51.531347 0 36.4583558 0 28.0921543 16.0380618 13.0191631 16.0380618 22.8719211 4.86243423 32.2061129"></polygon>
                <polygon id="Path-Copy" points="97.0473354 36.4425249 81.0092736 51.531347 81.0092736 41.7821766 92.216786 32.2741517 81.0092736 22.9039242 81.0092736 13.2236525 97.0473354 28.1746772"></polygon>
            </g>
            <g id="R-Copy-4" transform="translate(0.000000, 64.780838)">
                <path d="M0.161290323,135.141703 L0.161290323,34.1707749 C6.11001265,46.3527653 10.6530413,54.0172884 13.7903761,57.1643441 C22.2293724,65.6294881 30.9791003,65.064137 34.1054285,64.9387373 C45.3195367,64.4889297 55.6451807,57.8758229 64.8437315,57.1643441 C75.3777402,56.3495719 84.2089519,67.190969 92.0933313,66.8208543 C116.906364,65.6560616 129.592967,56.0336209 128.394701,58.0690101 C125.202601,63.4911517 120.221642,66.9823369 114.635466,70.3520294 C111.075046,72.4963792 106.194888,74.2730995 99.994846,75.6822436 C104.967157,77.3364563 108.588909,78.9906442 110.860211,80.6448569 C112.394875,81.7476654 114.620104,84.1064148 117.535966,87.7211758 C120.451827,91.3359369 122.400821,94.1235498 123.383006,96.0840982 L143.548387,135.141703 L96.4037507,135.141703 L74.1205436,93.9703925 C71.2967622,88.6401516 68.7799513,85.1786103 66.5700355,83.5856648 C63.5620944,81.5025821 60.1551919,80.4610564 56.3492256,80.4610564 L52.6660509,80.4610564 L52.6660509,135.141703 L0.161290323,135.141703 Z" id="Path"></path>
                <g id="GameController" transform="translate(0.056425, 0.000000)">
                    <path d="M22.3512945,30.9805331 L32.1255032,30.9805331 L32.1255032,30.9805331 L32.1255032,21.1723815 C32.1255032,20.4574058 32.7051055,19.8778035 33.4200812,19.8778035 L40.1656982,19.8778035 C40.8806739,19.8778035 41.4602763,20.4574058 41.4602763,21.1723815 L41.4602763,30.9805331 L41.4602763,30.9805331 L51.2922854,30.9805331 C52.0072611,30.9805331 52.5868634,31.5601355 52.5868634,32.2751112 L52.5868634,39.029551 C52.5868634,39.7445267 52.0072611,40.324129 51.2922854,40.324129 L41.4602763,40.324129 L41.4602763,40.324129 L41.4602763,50.0746042 C41.4602763,50.7895799 40.8806739,51.3691822 40.1656982,51.3691822 L33.4200812,51.3691822 C32.7051055,51.3691822 32.1255032,50.7895799 32.1255032,50.0746042 L32.1255032,40.324129 L32.1255032,40.324129 L22.3512945,40.324129 C21.6363188,40.324129 21.0567165,39.7445267 21.0567165,39.029551 L21.0567165,32.2751112 C21.0567165,31.5601355 21.6363188,30.9805331 22.3512945,30.9805331 Z" id="+" fill-rule="nonzero"></path>
                    <path d="M85.8210708,30.9805331 L114.762062,30.9805331 C115.477037,30.9805331 116.05664,31.5601355 116.05664,32.2751112 L116.05664,39.029551 C116.05664,39.7445267 115.477037,40.324129 114.762062,40.324129 L85.8210708,40.324129 C85.1060951,40.324129 84.5264928,39.7445267 84.5264928,39.029551 L84.5264928,32.2751112 C84.5264928,31.5601355 85.1060951,30.9805331 85.8210708,30.9805331 Z" id="-" fill-rule="nonzero"></path>
                    <path d="M63.3774749,0.0782743206 L63.3774749,0.0441927419 L104.230407,0.0441927419 L104.582101,0.0985393609 C107.405819,0.534882013 109.569389,0.986277207 111.144873,1.48546542 C112.702494,1.97899388 114.829574,2.88313185 117.618404,4.21944862 L117.722891,4.26951542 L117.824745,4.32474219 C119.702488,5.34288264 121.469533,6.58435966 123.276176,8.10810942 C124.694904,9.30468653 126.03748,10.5772245 127.903173,12.4490133 L128.249685,12.7966573 L128.515663,13.2091885 C130.283499,15.9510859 131.102193,17.2651499 131.983838,18.8381093 C133.174848,20.9630143 134.059865,22.8948727 134.694994,24.8607393 C138.645284,37.0877705 136.047181,48.779904 127.504829,58.8385044 L127.443685,58.9105022 L127.379656,58.9799481 C117.082497,70.1483594 103.378071,73.7438934 89.0495966,69.0278927 C88.2020675,68.7489413 86.3781538,67.8931802 84.4923423,66.9111485 C82.2181005,65.7268427 80.246346,64.566042 78.9055694,63.55551 C78.0255823,62.8922711 76.9212259,61.8782874 75.5326386,60.4725496 L73.1650054,60.4725496 L73.1650054,60.5066312 L61.0098417,60.5066312 C59.6212544,61.912369 58.516898,62.9263527 57.6369108,63.5895916 C56.2961343,64.6001236 54.3243798,65.7609243 52.050138,66.9452301 C50.1643265,67.9272618 48.3404127,68.7830229 47.4928837,69.0619743 C33.1644096,73.777975 19.4599834,70.182441 9.16282408,59.0140297 L9.09879568,58.9445838 L9.03765091,58.872586 C0.495299003,48.8139855 -2.10280342,37.1218521 1.84748616,24.8948209 C2.48261518,22.9289543 3.36763187,20.9970959 4.5586423,18.8721909 C5.44028693,17.2992315 6.25898174,15.9851675 8.0268168,13.2432701 L8.29279577,12.8307389 L8.63930752,12.4830949 C10.5049998,10.6113061 11.8475764,9.33876811 13.2663046,8.142191 C15.0729469,6.61844124 16.8399918,5.37696422 18.7177349,4.35882377 L18.8195889,4.303597 L18.924076,4.2535302 C21.7129068,2.91721343 23.839986,2.01307546 25.3976071,1.519547 C26.9730909,1.02035879 29.1366617,0.568963591 31.9603788,0.13262094 L32.3120737,0.0782743206 L63.3774749,0.0782743206 Z M72.6439281,9.31064597 L72.6439281,9.34472755 L33.0282064,9.34472755 C30.8108981,9.69613821 29.1796772,10.0416786 28.1965248,10.3531881 C27.1606455,10.6814039 25.4114796,11.423224 23.0372284,12.5580353 C20.7583924,13.8098478 18.7545735,15.4838815 15.5474811,18.6796681 C14.0673936,20.979781 13.3574398,22.1263769 12.641953,23.402891 C11.7295709,25.0306897 11.092072,26.422254 10.6651663,27.7436228 C7.73638631,36.808853 9.57457615,45.1509227 16.0395779,52.8020585 C23.8703317,61.2511662 33.7567416,63.8275515 44.5958539,60.2600214 C44.5558348,60.2731931 43.1693817,60.7836781 44.5658802,60.2690765 C45.9623786,59.7544749 44.6853091,60.2202342 44.7704526,60.1835007 C44.9716726,60.0966883 45.2306916,59.979366 45.5272772,59.8402112 C46.1928653,59.5279243 46.9811572,59.1372849 47.7701991,58.7263933 C49.6247175,57.7606574 51.225143,56.8184635 52.0595711,56.1895621 C52.696251,55.7097018 53.9504463,54.5095993 55.6862962,52.6823281 L57.0562932,51.240178 L63.8985522,51.240178 L63.8985522,51.2060964 L79.4861871,51.2060964 L80.8561841,52.6482465 C82.592034,54.4755177 83.8462293,55.6756202 84.4829092,56.1554805 C85.3173373,56.7843819 86.9177628,57.7265758 88.7722812,58.6923117 C89.5613231,59.1032034 87.8932825,58.3447101 91.0152031,59.8061296 C94.1371236,61.2675491 91.5708077,60.0626067 91.7720277,60.1494191 C91.8571712,60.1861526 91.9268078,60.2151846 91.9766001,60.2349949 C91.98727,60.23924 91.9876819,60.2394687 91.9712607,60.2340618 L91.961496,60.2308303 C102.794781,63.7911123 112.67573,61.2132208 120.502903,52.7679767 C126.967904,45.1168411 128.806094,36.7747714 125.877314,27.7095412 C125.450408,26.3881725 124.812909,24.9966081 123.900527,23.3688094 C123.18504,22.0922954 122.475087,20.9456994 120.994999,18.6455865 C117.787907,15.4497997 115.784088,13.775766 113.505251,12.5239535 C111.131001,11.3891424 109.381835,10.6473224 108.345955,10.3191065 C107.362803,10.0075971 105.731582,9.66205663 103.514273,9.31064597 L72.6439281,9.31064597 Z" id="Combined-Shape"></path>
                </g>
            </g>
        </g>
    </g>
</svg>